<svg width="192" height="52" viewBox="0 0 192 52" fill="none" xmlns="http://www.w3.org/2000/svg">
<path d="M24.1935 26.3292C23.8269 27.9668 23.4865 29.7323 23.1723 31.6258C22.9106 33.4681 22.5701 35.3103 22.1512 37.1526C21.7323 38.9437 21.1824 40.6837 20.5016 42.3724C19.8732 44.0612 19.0353 45.5452 17.988 46.8246C16.9407 48.104 15.6315 49.1274 14.0605 49.8951C12.4895 50.6627 10.5781 51.0465 8.32633 51.0465C7.22663 51.0465 6.1531 50.9185 5.10577 50.6627C4.1108 50.4069 3.24674 49.9974 2.51361 49.4345C1.72811 48.8716 1.12588 48.1551 0.706953 47.2852C0.235651 46.4152 0 45.3917 0 44.2147C0 42.2189 0.68077 40.6837 2.04231 39.609C3.40384 38.5856 5.02722 38.0738 6.91243 38.0738L8.01213 38.1505C7.7503 38.7134 7.48846 39.302 7.22663 39.916C7.01716 40.5814 6.91243 41.2465 6.91243 41.9118C6.91243 43.2423 7.56701 43.9077 8.87619 43.9077C10.9709 43.9077 12.5681 43.268 13.6678 41.9886C14.8199 40.7092 15.6577 39.174 16.1814 37.3829C15.5006 37.7923 14.8199 38.1505 14.1391 38.4576C13.4582 38.7646 12.699 38.9181 11.8611 38.9181C10.5519 38.9181 9.37367 38.6623 8.32633 38.1505C7.33136 37.5877 6.4673 36.8711 5.73417 36.0012C5.0534 35.0801 4.52974 34.0566 4.16317 32.9307C3.79659 31.8049 3.61331 30.6534 3.61331 29.4765C3.61331 28.0948 3.90134 26.6107 4.47737 25.0243C5.10577 23.4378 5.91745 21.9794 6.91243 20.6489C7.95976 19.3184 9.16421 18.2181 10.5257 17.3481C11.8873 16.427 13.3274 15.9664 14.846 15.9664C15.9457 15.9664 16.9145 16.2735 17.7524 16.8876C18.5903 17.5017 19.2972 18.2437 19.8732 19.1136L20.3445 16.8876C20.6063 16.6317 20.9468 16.4525 21.3657 16.3502C21.7846 16.1967 22.1773 16.1199 22.5439 16.1199C23.2248 16.1199 23.8532 16.2479 24.4291 16.5038C25.0051 16.7596 25.555 17.0923 26.0787 17.5017L24.1935 26.3292ZM12.4895 33.4681C12.9608 33.4681 13.4845 33.2633 14.0605 32.854C14.6889 32.4446 15.2649 31.9584 15.7886 31.3955C16.3646 30.7814 16.8622 30.1673 17.2811 29.5532C17.7 28.8879 17.988 28.3506 18.1451 27.9412C18.4069 27.3271 18.564 26.5083 18.6164 25.4849C18.7211 24.4614 18.6426 23.5146 18.3808 22.6447C18.1713 21.7235 17.7524 21.0582 17.124 20.6489C16.4956 20.1883 15.6315 20.2651 14.5318 20.8792C13.7463 21.2885 13.0917 21.8515 12.5681 22.5679C12.0968 23.2843 11.704 24.0776 11.3898 24.9475C11.128 25.7664 10.9185 26.6618 10.7614 27.6342C10.6567 28.5553 10.6043 29.4252 10.6043 30.2441C10.6043 30.4999 10.6305 30.807 10.6828 31.1652C10.7352 31.5235 10.8399 31.8816 10.997 32.2399C11.1541 32.5982 11.3374 32.9052 11.5469 33.161C11.8087 33.3658 12.1229 33.4681 12.4895 33.4681ZM27.624 38.8414C27.0479 38.8926 26.4457 38.8158 25.8173 38.6111C25.2412 38.3553 24.7699 38.0226 24.4034 37.6132C25.6078 34.0309 26.5766 30.3976 27.3098 26.713C28.0953 23.0285 28.9331 19.3439 29.8234 15.6594C29.9281 15.25 30.1637 14.9941 30.5303 14.8918C30.8968 14.7382 31.2896 14.6615 31.7086 14.6615C32.8083 14.6615 33.6724 14.7638 34.3008 14.9685C34.9292 15.122 35.3742 15.4035 35.6361 15.8129C35.9503 16.1712 36.1074 16.6828 36.1074 17.3481C36.1074 18.0134 36.0289 18.8066 35.8718 19.7277C36.762 18.3972 37.8355 17.3226 39.0923 16.5038C40.3491 15.6849 41.8153 15.2756 43.4911 15.2756C44.7479 15.2243 45.7428 15.5058 46.4761 16.1199C47.2616 16.734 47.7851 17.5017 48.0471 18.4228C48.3613 19.3439 48.4398 20.3163 48.2827 21.3397C48.1779 22.3121 47.8637 23.1565 47.3401 23.8729C46.7117 24.7428 46.057 25.4081 45.3764 25.8687C44.748 26.3292 44.1195 26.6363 43.4911 26.7898C42.8627 26.9433 42.2605 26.9689 41.6845 26.8666C41.1608 26.7643 40.6633 26.6363 40.192 26.4828C41.0298 25.9199 41.6582 25.3313 42.0772 24.7172C42.5485 24.0519 42.7842 23.4635 42.7842 22.9517C42.7842 22.3889 42.5223 21.9538 41.9987 21.6468C41.475 21.2885 40.6633 21.1094 39.5636 21.1094C38.6733 21.1094 37.8355 21.5188 37.05 22.3376C36.3168 23.1052 35.6623 24.0776 35.0863 25.2546C34.5101 26.3805 33.9866 27.6597 33.5153 29.0927C33.044 30.4744 32.6249 31.8049 32.2585 33.0843C31.8918 34.3125 31.5515 35.3871 31.2373 36.3082C30.9754 37.2294 30.7136 37.8179 30.4518 38.0738C30.1376 38.3296 29.6663 38.5343 29.0379 38.6879C28.4618 38.7902 27.9905 38.8414 27.624 38.8414ZM70.2626 28.2483C69.7913 29.6812 69.1629 31.0629 68.3774 32.3934C67.6443 33.7239 66.7278 34.9265 65.6281 36.0012C64.5808 37.0246 63.3764 37.8435 62.0148 38.4576C60.6533 39.0717 59.1347 39.3787 57.4589 39.3787C55.9927 39.3787 54.6573 39.1484 53.4528 38.6879C52.3008 38.1761 51.3058 37.4852 50.4679 36.6153C49.6301 35.6942 49.0017 34.645 48.5827 33.4681C48.1114 32.2911 47.8757 31.0117 47.8757 29.63C47.8757 28.3506 48.1638 26.9178 48.7398 25.3313C49.2635 23.6938 50.0229 22.1841 51.0178 20.8024C51.9604 19.3695 53.0863 18.1925 54.3954 17.2714C55.7046 16.299 57.1185 15.8129 58.6371 15.8129C60.6272 15.8129 62.1719 16.3247 63.2716 17.3481C64.3713 18.3716 64.9212 19.8557 64.9212 21.8003C64.9212 22.9262 64.5547 24.0008 63.8215 25.0243C63.0884 26.0477 62.1719 26.9946 61.0722 27.8645C60.0249 28.6833 58.8991 29.3997 57.6945 30.0138C56.4901 30.5767 55.3904 30.9862 54.3954 31.242C54.8144 32.419 55.5475 33.3145 56.5948 33.9286C57.6945 34.5427 58.8467 34.8498 60.051 34.8498C61.0461 34.8498 61.9887 34.645 62.8789 34.2357C63.8215 33.8263 64.6594 33.289 65.3925 32.6237C66.1257 31.9584 66.7541 31.2164 67.2777 30.3976C67.8014 29.5277 68.1941 28.6321 68.4559 27.711L70.2626 28.2483ZM59.187 19.2672C58.4015 19.2672 57.7208 19.6254 57.1447 20.3418C56.5687 21.0071 56.0712 21.8258 55.6522 22.7982C55.2333 23.7193 54.893 24.666 54.6311 25.6384C54.4217 26.6107 54.2646 27.3527 54.1598 27.8645C54.9453 27.8133 55.7571 27.6086 56.5948 27.2504C57.4852 26.841 58.2968 26.3292 59.0299 25.7151C59.8154 25.1011 60.4438 24.4102 60.9151 23.6426C61.4388 22.875 61.7006 22.0818 61.7006 21.263C61.7006 20.5466 61.4388 20.0348 60.9151 19.7277C60.3915 19.4207 59.8154 19.2672 59.187 19.2672ZM89.4007 17.5017C89.0341 18.9857 88.6937 20.4698 88.3795 21.9538C88.0653 23.3868 87.7511 24.8452 87.4369 26.3292C87.0703 27.9668 86.73 29.7323 86.4158 31.6258C86.154 33.4681 85.8135 35.3103 85.3946 37.1526C84.9757 38.9437 84.4259 40.6837 83.7451 42.3724C83.1167 44.0612 82.2788 45.5452 81.2315 46.8246C80.1842 48.104 78.875 49.1274 77.3039 49.8951C75.7329 50.6627 73.8216 51.0465 71.5698 51.0465C70.4701 51.0465 69.4228 50.9185 68.4278 50.6627C67.4327 50.4069 66.5425 49.9974 65.757 49.4345C64.9715 48.8716 64.3693 48.1551 63.9504 47.2852C63.4791 46.4152 63.2434 45.3661 63.2434 44.1379C63.2434 42.0909 63.9504 40.5557 65.3643 39.5322C66.7782 38.5599 68.4539 38.0738 70.3915 38.0738C69.3965 37.562 68.6373 36.7688 68.1136 35.6942C67.6423 34.5683 67.4066 33.4936 67.4066 32.4702C67.4066 31.3955 67.5898 29.9115 67.9565 28.018C68.3231 26.1245 68.8466 24.2567 69.5275 22.4144C70.2083 20.5721 71.0199 18.9601 71.9625 17.5784C72.9051 16.1967 73.9787 15.5058 75.1831 15.5058C75.602 15.5058 76.1518 15.6082 76.8326 15.8129C77.5135 16.0176 77.8538 16.4014 77.8538 16.9643C77.8538 17.2201 77.6181 17.8342 77.1468 18.8066C76.6755 19.7277 76.1518 20.7769 75.5758 21.9538C75.0521 23.1308 74.5547 24.3334 74.0834 25.5616C73.6645 26.7898 73.455 27.8389 73.455 28.7089C73.455 30.0393 74.1619 30.7047 75.5758 30.7047C76.9897 30.7047 78.1419 30.1673 79.0321 29.0927C79.9747 28.018 80.734 26.7386 81.31 25.2546C81.9384 23.7706 82.4097 22.2609 82.7239 20.7256C83.0905 19.1392 83.3785 17.8599 83.588 16.8876C83.8498 16.6317 84.1902 16.4525 84.6091 16.3502C85.028 16.1967 85.447 16.1199 85.8659 16.1199C86.4943 16.1199 87.0966 16.2479 87.6726 16.5038C88.301 16.7596 88.877 17.0923 89.4007 17.5017ZM71.177 38.3808C70.9152 38.9437 70.6796 39.5067 70.4701 40.0696C70.2606 40.6837 70.1559 41.2978 70.1559 41.9118C70.1559 43.2423 70.8628 43.9077 72.2767 43.9077C73.5859 43.9077 74.6856 43.6262 75.5758 43.0633C76.5184 42.5004 77.2778 41.7839 77.8538 40.914C78.4822 40.044 78.9535 39.0717 79.2677 37.997C79.6343 36.9223 79.8961 35.8477 80.0532 34.773C80.1056 34.6707 80.1318 34.5427 80.1318 34.3892C80.1318 34.2357 80.1579 34.1077 80.2103 34.0054C79.4772 35.3359 78.5608 36.4618 77.461 37.3829C76.4138 38.3041 75.0784 38.7646 73.455 38.7646C72.7219 38.7646 71.9625 38.6366 71.177 38.3808ZM99.2845 21.8771C100.122 22.6447 101.091 23.31 102.191 23.8729C103.291 24.3847 104.338 24.9987 105.333 25.7151C106.328 26.3805 107.166 27.2248 107.846 28.2483C108.527 29.2717 108.868 30.6791 108.868 32.4702C108.868 33.3401 108.658 34.1589 108.239 34.9265C107.873 35.6942 107.192 36.385 106.197 36.9991C105.254 37.6132 103.971 38.0993 102.348 38.4576C100.777 38.8158 98.787 38.9949 96.3781 38.9949C95.3308 38.9949 94.3097 38.8414 93.3147 38.5343C92.3198 38.1761 91.4294 37.6644 90.6439 36.9991C89.8584 36.3338 89.23 35.5151 88.7587 34.5427C88.2874 33.5704 88.0518 32.419 88.0518 31.0885C88.0518 30.065 88.3137 29.1694 88.8373 28.4018C89.3086 27.6342 90.1465 26.9433 91.3509 26.3292C91.9793 26.0222 92.634 25.8942 93.3147 25.9454C94.0479 25.9966 94.6763 26.1245 95.1999 26.3292C95.776 26.4828 96.1425 26.6875 96.2996 26.9433C96.5091 27.1992 96.3781 27.4039 95.9068 27.5574C95.4355 27.7109 95.1476 28.0692 95.0428 28.6321C94.9905 29.195 95.0952 29.7835 95.357 30.3976C95.6712 31.0117 96.1425 31.5746 96.7709 32.0864C97.4517 32.5981 98.2896 32.854 99.2845 32.854C100.803 32.854 101.877 32.6749 102.505 32.3166C103.186 31.9073 103.526 31.3955 103.526 30.7814C103.526 30.2696 103.369 29.8347 103.055 29.4765C102.793 29.0671 102.479 28.7344 102.112 28.4786C101.798 28.2227 101.458 28.018 101.091 27.8645C100.777 27.7109 100.568 27.6086 100.463 27.5574C99.8343 27.2504 99.2322 26.9433 98.6561 26.6363C98.0801 26.3292 97.5564 25.971 97.0851 25.5616C95.4094 24.0776 94.8071 22.2864 95.2784 20.1883C95.5926 19.0624 96.1949 18.0902 97.0851 17.2714C98.0277 16.4014 99.1012 15.8129 100.306 15.5058C100.934 15.3523 101.615 15.2756 102.348 15.2756C102.976 15.2756 103.605 15.3523 104.233 15.5058C104.914 15.6082 105.516 15.8384 106.04 16.1967C106.564 16.5038 106.982 16.9131 107.297 17.4249C107.663 17.9367 107.873 18.5763 107.925 19.3439C107.925 19.958 107.742 20.4698 107.375 20.8792C107.061 21.1862 106.668 21.442 106.197 21.6468C105.726 21.8003 105.254 21.9283 104.783 22.0306C104.364 22.0818 103.971 22.1329 103.605 22.1841C103.238 22.1841 102.976 22.1841 102.819 22.1841H102.741L101.248 22.1073C102.243 21.8003 102.872 21.4677 103.133 21.1094C103.395 20.7512 103.448 20.4441 103.291 20.1883C103.133 19.8813 102.846 19.651 102.427 19.4975C102.008 19.2927 101.615 19.216 101.248 19.2672C100.934 19.3184 100.594 19.4207 100.227 19.5742C99.8606 19.6765 99.5464 19.8557 99.2845 20.1115C99.0751 20.3163 98.9441 20.5721 98.8917 20.8792C98.8395 21.1862 98.9703 21.5188 99.2845 21.8771ZM134.581 38.8414C134.895 40.0696 135.053 41.349 135.053 42.6795C135.053 43.6518 134.922 44.6497 134.66 45.6732C134.398 46.6966 133.979 47.6178 133.403 48.4366C132.879 49.2554 132.199 49.9206 131.361 50.4324C130.523 50.9442 129.528 51.2 128.376 51.2C126.752 51.2 125.312 50.5347 124.055 49.2042C122.799 47.8737 121.725 46.2873 120.835 44.445C119.945 42.6027 119.212 40.7092 118.635 38.7646C118.06 36.7688 117.614 35.1313 117.3 33.8519L116.515 38.7646C116.096 39.174 115.546 39.4299 114.865 39.5322C114.237 39.6345 113.635 39.6858 113.058 39.6858C112.64 39.6858 112.142 39.609 111.566 39.4555C111.042 39.3532 110.78 39.0205 110.78 38.4576C110.78 37.0246 110.99 35.2848 111.409 33.2378C111.828 31.1908 112.351 28.9904 112.98 26.6363C113.661 24.2311 114.42 21.8003 115.258 19.3439C116.148 16.8363 117.012 14.4312 117.85 12.1283C118.74 9.77431 119.578 7.62499 120.364 5.68036C121.202 3.68456 121.908 2.02139 122.484 0.690856C122.746 0.486156 123.034 0.332635 123.349 0.230286C123.715 0.0767616 124.055 0 124.37 0C124.632 0 124.972 0.0255868 125.391 0.0767603C125.862 0.127934 126.307 0.230284 126.726 0.383808C127.145 0.537333 127.512 0.742035 127.826 0.997902C128.14 1.25377 128.297 1.56082 128.297 1.91904L128.219 2.37961C127.171 5.6036 125.862 8.75083 124.291 11.8213C122.773 14.8918 121.49 18.0902 120.442 21.4165C121.385 19.9325 122.563 18.6786 123.977 17.6552C125.391 16.6317 127.014 16.1199 128.847 16.1199C130.156 16.1199 131.256 16.427 132.146 17.0411C133.036 17.604 133.482 18.5763 133.482 19.958C133.482 21.442 133.167 22.8237 132.539 24.1032C131.963 25.3313 131.177 26.4315 130.182 27.4039C129.24 28.3763 128.114 29.2206 126.805 29.937C125.548 30.6023 124.239 31.114 122.877 31.4723C123.034 32.1887 123.244 33.1866 123.506 34.466C123.768 35.6942 124.082 36.9479 124.448 38.2273C124.867 39.5067 125.391 40.6069 126.019 41.528C126.648 42.4492 127.407 42.9098 128.297 42.9098C129.816 42.9098 131.073 42.6539 132.068 42.1421C133.063 41.6816 133.691 40.6324 133.953 38.9949L134.581 38.8414ZM124.841 21.9538C124.003 21.9538 123.244 22.2864 122.563 22.9517C121.882 23.5658 121.254 24.3334 120.678 25.2546C120.154 26.1245 119.683 27.0456 119.264 28.018C118.897 28.9904 118.583 29.7835 118.321 30.3976C118.95 30.1418 119.709 29.7835 120.599 29.3229C121.542 28.8624 122.432 28.325 123.27 27.711C124.108 27.0456 124.815 26.3292 125.391 25.5616C126.019 24.794 126.333 24.0008 126.333 23.182C126.333 22.3632 125.836 21.9538 124.841 21.9538ZM161.57 31.242C161.256 32.1119 160.81 33.0075 160.235 33.9286C159.659 34.7986 158.978 35.5919 158.192 36.3082C157.407 37.0246 156.543 37.6132 155.6 38.0738C154.71 38.5343 153.741 38.7646 152.694 38.7646C151.541 38.7646 150.52 38.5343 149.63 38.0738C148.792 37.562 148.164 36.7944 147.745 35.7709C147.012 36.6921 146.148 37.4597 145.153 38.0738C144.21 38.6366 143.136 38.9181 141.932 38.9181C141.2 38.9181 140.518 38.8158 139.89 38.6111C139.314 38.4064 138.737 38.1505 138.162 37.8435C138.109 37.8435 138.031 37.8179 137.926 37.7667C137.822 37.6644 137.743 37.6132 137.691 37.6132C136.33 36.7944 135.334 35.6174 134.706 34.0822C134.025 32.4957 133.685 30.9605 133.685 29.4765C133.685 28.0948 133.999 26.6363 134.627 25.1011C135.203 23.5146 135.988 22.0561 136.984 20.7256C138.031 19.3439 139.236 18.2181 140.597 17.3481C141.958 16.427 143.399 15.9664 144.917 15.9664C145.964 15.9664 146.934 16.2735 147.824 16.8876C148.766 17.4504 149.447 18.167 149.866 19.0369C150.18 18.167 150.469 17.3993 150.73 16.734C151.044 16.0176 151.751 15.6594 152.851 15.6594C153.061 15.6594 153.375 15.7106 153.793 15.8129C154.265 15.8641 154.71 15.9664 155.129 16.1199C155.6 16.2735 155.993 16.4782 156.307 16.734C156.621 16.9388 156.778 17.1946 156.778 17.5017C156.778 17.911 156.543 18.6786 156.071 19.8045C155.6 20.9304 155.05 22.2353 154.422 23.7193C153.846 25.1523 153.322 26.6363 152.851 28.1715C152.379 29.7068 152.144 31.0629 152.144 32.2399C152.144 33.1098 152.301 33.7496 152.615 34.1589C152.929 34.5683 153.532 34.773 154.422 34.773C155.836 34.773 157.067 34.338 158.114 33.4681C159.161 32.5981 159.973 31.5746 160.549 30.3976L161.57 31.242ZM142.561 33.4681C143.085 33.4681 143.608 33.3145 144.132 33.0075C144.656 32.6492 145.153 32.2399 145.624 31.7793C146.095 31.2675 146.488 30.7559 146.802 30.2441C147.169 29.6812 147.484 29.195 147.745 28.7856C148.112 28.1715 148.348 27.4294 148.452 26.5595C148.556 25.6896 148.556 24.922 148.452 24.2567C148.399 23.9496 148.295 23.5658 148.138 23.1052C147.981 22.6447 147.771 22.2353 147.509 21.8771C147.248 21.4677 146.934 21.135 146.567 20.8792C146.253 20.6233 145.86 20.5466 145.389 20.6489C144.236 20.9047 143.293 21.3653 142.561 22.0306C141.879 22.6959 141.33 23.4891 140.911 24.4102C140.493 25.2801 140.204 26.2269 140.047 27.2504C139.943 28.2738 139.89 29.2462 139.89 30.1673C139.89 30.4231 139.969 30.7559 140.126 31.1652C140.283 31.5235 140.466 31.8816 140.675 32.2399C140.937 32.5469 141.225 32.8284 141.54 33.0843C141.854 33.3401 142.194 33.4681 142.561 33.4681ZM164.452 32.854C164.452 33.7239 164.583 34.2612 164.845 34.466C165.106 34.6707 165.656 34.773 166.494 34.773C167.698 34.773 168.825 34.3125 169.872 33.3913C170.972 32.419 171.731 31.4211 172.15 30.3976L173.171 31.242C172.857 32.1119 172.411 33.0075 171.836 33.9286C171.26 34.7986 170.579 35.5919 169.793 36.3082C169.061 37.0246 168.222 37.6132 167.28 38.0738C166.39 38.5343 165.42 38.7646 164.373 38.7646C162.592 38.7646 161.231 38.2528 160.289 37.2294C159.346 36.2059 158.875 34.8753 158.875 33.2378C158.875 31.242 159.215 28.7344 159.896 25.7151C160.629 22.6959 161.493 19.5998 162.488 16.427C163.535 13.2542 164.609 10.2605 165.709 7.44588C166.861 4.58012 167.882 2.32843 168.772 0.690856C168.929 0.383809 169.218 0.204698 169.636 0.153522C170.055 0.0511735 170.422 0 170.736 0C170.946 0 171.26 0.0511735 171.678 0.153522C172.097 0.204698 172.517 0.307048 172.935 0.460568C173.354 0.562919 173.721 0.716439 174.035 0.921141C174.402 1.12584 174.585 1.38171 174.585 1.68876C174.585 2.20051 174.323 3.14723 173.799 4.52894C173.328 5.85947 172.7 7.47146 171.914 9.36492C171.181 11.2072 170.369 13.203 169.479 15.3523C168.641 17.5017 167.83 19.651 167.044 21.8003C166.311 23.9496 165.683 25.9966 165.159 27.9412C164.688 29.8347 164.452 31.4723 164.452 32.854ZM192 28.2483C191.529 29.6812 190.9 31.0629 190.115 32.3934C189.382 33.7239 188.465 34.9265 187.366 36.0012C186.319 37.0246 185.115 37.8435 183.752 38.4576C182.391 39.0717 180.873 39.3787 179.196 39.3787C177.731 39.3787 176.396 39.1484 175.19 38.6879C174.039 38.1761 173.044 37.4852 172.205 36.6153C171.368 35.6942 170.74 34.645 170.32 33.4681C169.849 32.2911 169.613 31.0117 169.613 29.63C169.613 28.3506 169.902 26.9178 170.477 25.3313C171.001 23.6938 171.761 22.1841 172.755 20.8024C173.698 19.3695 174.825 18.1925 176.133 17.2714C177.442 16.299 178.856 15.8129 180.375 15.8129C182.365 15.8129 183.909 16.3247 185.009 17.3481C186.109 18.3716 186.659 19.8557 186.659 21.8003C186.659 22.9262 186.293 24.0008 185.559 25.0243C184.826 26.0477 183.909 26.9946 182.81 27.8645C181.763 28.6833 180.637 29.3997 179.432 30.0138C178.228 30.5767 177.128 30.9862 176.133 31.242C176.553 32.419 177.285 33.3145 178.332 33.9286C179.432 34.5427 180.584 34.8498 181.788 34.8498C182.784 34.8498 183.726 34.645 184.616 34.2357C185.559 33.8263 186.397 33.289 187.13 32.6237C187.864 31.9584 188.492 31.2164 189.015 30.3976C189.539 29.5277 189.932 28.6321 190.193 27.711L192 28.2483ZM180.924 19.2672C180.139 19.2672 179.459 19.6254 178.882 20.3418C178.307 21.0071 177.809 21.8258 177.39 22.7982C176.971 23.7193 176.631 24.666 176.368 25.6384C176.16 26.6107 176.003 27.3527 175.897 27.8645C176.683 27.8133 177.495 27.6086 178.332 27.2504C179.223 26.841 180.035 26.3292 180.767 25.7151C181.553 25.1011 182.181 24.4102 182.653 23.6426C183.177 22.875 183.438 22.0818 183.438 21.263C183.438 20.5466 183.177 20.0348 182.653 19.7277C182.13 19.4207 181.553 19.2672 180.924 19.2672Z" fill="white"/>
</svg>
